<svg width="512" height="512" viewBox="0 0 512 512" fill="none" xmlns="http://www.w3.org/2000/svg">
<rect width="512" height="512" rx="256" fill="url(#paint0_linear)"/>
<g filter="url(#filter0_d)">
<path d="M398.649 189.417C376.779 189.417 364.563 211.137 369.54 227.276L315.997 280.973C311.472 279.615 304.836 279.615 300.311 280.973L261.851 242.51C266.979 226.371 254.762 204.5 232.742 204.5C210.872 204.5 198.505 226.22 203.633 242.51L134.857 311.139C118.719 306.162 97 318.379 97 340.25C97 356.842 110.574 370.417 127.165 370.417C149.034 370.417 161.251 348.697 156.274 332.558L224.899 263.778C229.424 265.135 236.06 265.135 240.585 263.778L279.045 302.24C273.917 318.379 286.134 340.25 308.154 340.25C330.024 340.25 342.391 318.53 337.263 302.24L390.957 248.694C407.095 253.672 428.814 241.454 428.814 219.583C428.814 202.992 415.24 189.417 398.649 189.417Z" fill="white"/>
<path d="M308.161 204.5L322.34 173.277L353.411 159.25L322.34 145.223L308.161 114L294.285 145.223L262.911 159.25L294.285 173.277L308.161 204.5Z" fill="white"/>
<path d="M134.709 234.667L142.251 204.5L172.418 196.958L142.251 189.417L134.709 159.25L127.167 189.417L97 196.958L127.167 204.5L134.709 234.667Z" fill="white"/>
</g>
<defs>
<filter id="filter0_d" x="71" y="75" width="370" height="370" filterUnits="userSpaceOnUse" color-interpolation-filters="sRGB">
<feFlood flood-opacity="0" result="BackgroundImageFix"/>
<feColorMatrix in="SourceAlpha" type="matrix" values="0 0 0 0 0 0 0 0 0 0 0 0 0 0 0 0 0 0 127 0"/>
<feOffset dy="4"/>
<feGaussianBlur stdDeviation="2"/>
<feColorMatrix type="matrix" values="0 0 0 0 0 0 0 0 0 0 0 0 0 0 0 0 0 0 0.25 0"/>
<feBlend mode="normal" in2="BackgroundImageFix" result="effect1_dropShadow"/>
<feBlend mode="normal" in="SourceGraphic" in2="effect1_dropShadow" result="shape"/>
</filter>
<linearGradient id="paint0_linear" x1="79.5" y1="73.5" x2="425.5" y2="445" gradientUnits="userSpaceOnUse">
<stop stop-color="#A556F7"/>
<stop offset="1" stop-color="#7561F2"/>
</linearGradient>
</defs>
</svg>
